<?xml version="1.0" encoding="UTF-8"?>
<svg
  xmlns="http://www.w3.org/2000/svg"
  viewBox="0 0 16.54 8.21"
  width="800"
  preserveAspectRatio="xMidYMid meet">

  <rect x="0" y="0"
        width="16.54"
        height="8.21"
        fill="#1e1e1e"/>

  <path d="M 3.5597840909090905 1.454 C 3.5700909090909088 2.670204545454546, 3.3106242725236696 2.824672071000545, 3.5597840909090905 2.804193181818182"
        fill="none"
        stroke="#42a5f5"
        stroke-width="0.05"/>

  <path d="M 3.5597840909090905 2.804193181818182 C 4.312181818181818 2.742352272727273, 5.05759532105814 2.820791540515189, 6.1364886363636355 2.804193181818182"
        fill="none"
        stroke="#42a5f5"
        stroke-width="0.05"/>

  <path d="M 6.1364886363636355 2.804193181818182 C 7.476374999999999 2.783579545454545, 7.917680397727274 1.251728693181819, 7.898954545454545 1.9075"
        fill="none"
        stroke="#42a5f5"
        stroke-width="0.05"/>

  <path d="M 7.898954545454545 1.9075 C 7.880228693181817 2.563271306818181, 8.348127474596467 6.2281834568486752, 7.414534090909091 6.2466704545454546"
        fill="none"
        stroke="#42a5f5"
        stroke-width="0.05"/>

  <path d="M 7.414534090909091 6.2466704545454546 C 6.373545454545454 6.2672840909090904, 7.0639180512953095 5.6102175786337774, 5.981886363636363 5.6179545454545452"
        fill="none"
        stroke="#42a5f5"
        stroke-width="0.05"/>

  <path d="M 5.981886363636363 5.6179545454545452 C 3.4593821022727274 5.635991477272726, 3.2072754794034086 5.65612198153409, 2.9551688565340903 5.6762524857954544"
        fill="none"
        stroke="#42a5f5"
        stroke-width="0.05"/>

  <path d="M 2.9551688565340903 5.6762524857954544 C 2.703062233664772 5.6963829900568186, 0.2922840909090909 5.6762524857954544, 1.292284090909091 5.6762524857954544"
        fill="none"
        stroke="#42a5f5"
        stroke-width="0.05"/>

  <circle cx="3.5597840909090905"
          cy="1.454"
          r="0.08"
          fill="#66bb6a"/>

  <circle cx="3.5597840909090905"
          cy="2.804193181818182"
          r="0.08"
          fill="#66bb6a"/>

  <circle cx="6.1364886363636355"
          cy="2.804193181818182"
          r="0.08"
          fill="#66bb6a"/>

  <circle cx="7.898954545454545"
          cy="1.9075"
          r="0.08"
          fill="#66bb6a"/>

  <circle cx="7.414534090909091"
          cy="6.2466704545454546"
          r="0.08"
          fill="#66bb6a"/>

  <circle cx="5.981886363636363"
          cy="5.6179545454545452"
          r="0.08"
          fill="#66bb6a"/>

  <circle cx="2.9551688565340903"
          cy="5.6762524857954544"
          r="0.08"
          fill="#66bb6a"/>

  <circle cx="1.292284090909091"
          cy="5.6762524857954544"
          r="0.08"
          fill="#66bb6a"/>

  <circle cx="3.5597840909090905" cy="1.454" r="0.1" fill="#00ff00"/>
  <circle cx="1.292284090909091" cy="5.6762524857954544" r="0.1" fill="#ff0000"/>
</svg>
